<svg xmlns="http://www.w3.org/2000/svg" viewBox="284.41 191.03 440.34 313.45">
  <g fill="#494949">
    <rect width="33.81" height="52.33" x="409.34" y="443.48" rx="6" ry="6"/>
    <rect width="33.81" height="20.67" x="409.34" y="483.81" rx="6" ry="6"/>
    <path d="M426.24 466.38c-20.65 0-37.44-16.8-37.44-37.44v-37.23c0-20.64 16.8-37.44 37.44-37.44s37.44 16.8 37.44 37.44v37.23c0 20.64-16.8 37.44-37.44 37.44Z"/>
    <rect width="33.81" height="52.33" x="564.9" y="443.48" rx="6" ry="6"/>
    <rect width="33.81" height="20.67" x="564.9" y="483.81" rx="6" ry="6"/>
    <path d="M581.8 466.38c-20.65 0-37.44-16.8-37.44-37.44v-37.23c0-20.64 16.8-37.44 37.44-37.44s37.44 16.8 37.44 37.44v37.23c0 20.64-16.8 37.44-37.44 37.44Z"/>
    <rect width="33.81" height="52.33" x="369.78" y="443.48" rx="6" ry="6"/>
    <rect width="33.81" height="20.67" x="369.78" y="483.81" rx="6" ry="6"/>
    <path d="M386.68 466.38c-20.65 0-37.44-16.8-37.44-37.44v-37.23c0-20.64 16.8-37.44 37.44-37.44s37.44 16.8 37.44 37.44v37.23c0 20.64-16.8 37.44-37.44 37.44Z"/>
    <rect width="33.81" height="52.33" x="525.34" y="443.48" rx="6" ry="6"/>
    <rect width="33.81" height="20.67" x="525.34" y="483.81" rx="6" ry="6"/>
    <path d="M542.24 466.38c-20.65 0-37.44-16.8-37.44-37.44v-37.23c0-20.64 16.8-37.44 37.44-37.44s37.44 16.8 37.44 37.44v37.23c0 20.64-16.8 37.44-37.44 37.44Z"/>
    <path d="M481.29 455.48c-13.52 0-26.46-4.8-36.69-13.56h-5.46c-4 1.6-8.22 2.4-12.56 2.4s-8.56-.81-12.56-2.4a111.34 111.34 0 0 1-71.59-26.23c-25.7-3.96-44.85-26.15-44.85-52.36 0-5.86.94-11.59 2.82-17.1-7.65-9.42-11.82-21.13-11.82-33.35 0-14.92 6.22-29 17.16-39.04.07-.73.16-1.45.28-2.17-12.05-.81-21.61-10.87-21.61-23.12s10.07-22.85 22.57-23.17c3.56-3.15 8.15-4.9 12.98-4.9s9.76 1.9 13.35 5.22c1.27-.22 2.55-.33 3.83-.33 2.38 0 4.73.37 6.98 1.08 9.93-13.33 25.78-21.42 42.55-21.42 6.61 0 13.16 1.24 19.26 3.62 5.87-10.75 17.16-17.62 29.81-17.62 7.67 0 15.12 2.63 21.08 7.34 8.12-4.82 17.31-7.34 26.86-7.34 12.04 0 23.45 3.97 32.75 11.28 6.14-5.36 13.99-8.34 22.31-8.34s16.71 3.21 22.95 8.92c1.67-.25 3.36-.38 5.05-.38 18.75 0 34 15.25 34 34 0 .37 0 .73-.02 1.1 29.76 19.76 48.14 52.23 49.7 87.91 5.74 6.25 8.99 14.5 8.99 23.02 0 9.78-4.24 19.05-11.49 25.47.2 1.86.3 3.72.3 5.55 0 29.22-23.78 53-53 53-3.18 0-6.35-.29-9.48-.86-14.66 6.77-30.35 10.21-46.65 10.21h-21.12a56.239 56.239 0 0 1-36.69 13.56Z"/>
    <path d="M627.02 316.56c-26.47 0-48-21.53-48-48s21.53-48 48-48h49.73c26.47 0 48 21.53 48 48s-21.53 48-48 48h-49.73Z"/>
    <path d="M657.42 270.52c-6.89 0-12.49-5.6-12.49-12.49s5.6-12.49 12.49-12.49 12.49 5.6 12.49 12.49-5.6 12.49-12.49 12.49Z"/>
    <path d="M615.25 336.57c-8.33 0-16.15-4.08-20.99-10.7-2.81.45-5.65.68-8.5.68-29.22 0-53-23.78-53-53 0-24.65 17.23-46 40.81-51.57 2.24-16.59 16.5-29.43 33.69-29.43 8.65 0 16.97 3.35 23.22 9.17 4-2.42 8.6-3.72 13.4-3.72 14.37 0 26.04 11.67 26.04 26.01s-11.67 26.01-26.01 26.01c-3.56 0-7.01-.71-10.21-2.09-.3.38-.62.75-.94 1.11a52.827 52.827 0 0 1 6.01 24.5c0 6.81-1.33 13.62-3.89 19.94 4.11 4.7 6.39 10.71 6.39 17.07 0 14.34-11.67 26.01-26.01 26.01Z"/>
    <path d="M603.78 299.78c-7.1 0-13.19-4.83-14.8-11.75-.03-.14-.07-.3-.1-.45-.44-2.07-.44-4.23 0-6.35l4.34-20.02c1.07-4.92 5.49-8.49 10.53-8.49.76 0 1.53.08 2.28.24 4.12.89 7.36 4.13 8.25 8.25l4.33 20c1.88 8.07-3.21 16.27-11.38 18.18-1.14.27-2.3.4-3.47.4Z"/>
  </g>
  <path fill="#aeaeaf" d="M415.34 449.48h21.81v40.33h-21.81v-40.33Z"/>
  <path fill="#848484" d="M415.34 489.81h21.81v8.67h-21.81v-8.67Z"/>
  <path fill="#cecece" d="M394.8 391.71c0-17.37 14.08-31.44 31.44-31.44s31.44 14.08 31.44 31.44v37.23c0 17.36-14.08 31.44-31.44 31.44s-31.44-14.08-31.44-31.44v-37.23Z"/>
  <path fill="#aeaeaf" d="M570.9 449.48h21.81v40.33H570.9v-40.33Z"/>
  <path fill="#848484" d="M570.9 489.81h21.81v8.67H570.9v-8.67Z"/>
  <path fill="#cecece" d="M550.36 391.71c0-17.37 14.08-31.44 31.44-31.44s31.44 14.08 31.44 31.44v37.23c0 17.36-14.08 31.44-31.44 31.44s-31.44-14.08-31.44-31.44v-37.23Z"/>
  <path fill="#c4c4c4" d="M375.78 449.48h21.81v40.33h-21.81v-40.33Z"/>
  <path fill="#848484" d="M375.78 489.81h21.81v8.67h-21.81v-8.67Z"/>
  <path fill="#fff" d="M355.24 391.71c0-17.37 14.08-31.44 31.44-31.44s31.44 14.08 31.44 31.44v37.23c0 17.36-14.08 31.44-31.44 31.44s-31.44-14.08-31.44-31.44v-37.23Z"/>
  <path fill="#c4c4c4" d="M531.34 449.48h21.81v40.33h-21.81v-40.33Z"/>
  <path fill="#848484" d="M531.34 489.81h21.81v8.67h-21.81v-8.67Z"/>
  <path fill="#fff" d="M510.8 391.71c0-17.37 14.08-31.44 31.44-31.44s31.44 14.08 31.44 31.44v37.23c0 17.36-14.08 31.44-31.44 31.44s-31.44-14.08-31.44-31.44v-37.23Z"/>
  <path fill="#fff" d="M653.42 348.55c0-8.08-3.43-15.36-8.9-20.47-.82-36.94-20.64-69.19-50.08-87.37.21-1.37.31-2.77.31-4.19 0-15.46-12.54-28-28-28-2.43 0-4.79.31-7.04.89-5.13-5.79-12.61-9.44-20.96-9.44-8.9 0-16.83 4.16-21.96 10.64-8.49-8.4-20.16-13.58-33.04-13.58a46.797 46.797 0 0 0-27.52 8.91c-5.11-5.48-12.39-8.91-20.48-8.91-12.55 0-23.18 8.26-26.73 19.64a46.85 46.85 0 0 0-22.35-5.64c-17.18 0-32.2 9.22-40.4 22.98-2.73-1.73-5.9-2.65-9.13-2.65-2.07 0-4.05.39-5.89 1.06-2.46-3.59-6.6-5.96-11.28-5.96-4.09 0-7.97 1.83-10.56 5-.61-.07-1.22-.1-1.83-.1-9.49 0-17.17 7.69-17.17 17.17s7.69 17.17 17.17 17.17c2.56 0 4.98-.58 7.16-1.59a27.88 27.88 0 0 0-3.15 12.56c-10.39 8.62-17.01 21.63-17.01 36.18 0 12.43 4.83 23.72 12.71 32.12a46.913 46.913 0 0 0-3.71 18.33c0 24.06 18.09 43.89 41.41 46.66 18.53 16.15 42.75 25.94 69.26 25.94h.98c3.47 1.54 7.31 2.4 11.35 2.4s7.88-.86 11.35-2.4h8.96c9.01 8.41 21.1 13.56 34.4 13.56s25.39-5.15 34.4-13.56h23.41c16.45 0 32.01-3.77 45.89-10.48 3.36.75 6.8 1.13 10.24 1.13 25.96 0 47-21.04 47-47 0-2.77-.25-5.48-.71-8.11 7.2-5.07 11.9-13.43 11.9-22.9Z"/>
  <path fill="#cecece" d="M676.76 226.55c23.2 0 42 18.81 42 42s-18.8 42-42 42h-49.73c-23.2 0-42-18.8-42-42s18.8-42 42-42h49.73Z"/>
  <circle cx="657.42" cy="258.03" r="6.49" fill="#757575"/>
  <path fill="#fff" d="M643.9 204.01c-5.31 0-10.4 2.1-14.15 5.86-5.1-6.87-13.28-11.32-22.49-11.32-15.46 0-28 12.54-28 28 0 .15.01.31.01.46-22.89 3.16-40.51 22.79-40.51 46.54 0 25.96 21.04 47 47 47 3.95 0 7.77-.49 11.44-1.41 3.22 6.75 10.08 11.42 18.05 11.42 11.05 0 20.01-8.96 20.01-20.01 0-6.37-2.98-12.02-7.61-15.69 3.37-6.6 5.12-13.9 5.11-21.31 0-9.41-2.78-18.17-7.54-25.52 2.69-2.25 4.94-4.99 6.63-8.07 3.36 2.54 7.52 4.07 12.06 4.07 11.05 0 20.01-8.96 20.01-20.01s-8.96-20.01-20.01-20.01Z"/>
  <path fill="#a0a0a0" d="m608.42 262.48 4.33 20c1.16 4.95-1.92 9.91-6.88 11.06s-9.91-1.92-11.06-6.88l-.06-.29a9.49 9.49 0 0 1 0-3.9l4.33-20c.56-2.58 3.1-4.21 5.68-3.66 1.83.4 3.26 1.83 3.66 3.66Z"/>
</svg>
